<?xml version="1.0" encoding="utf-8"?>
<!-- Generator: Adobe Illustrator 19.0.0, SVG Export Plug-In . SVG Version: 6.00 Build 0)  -->
<svg version="1.1" id="Layer_1" xmlns="http://www.w3.org/2000/svg" xmlns:xlink="http://www.w3.org/1999/xlink" x="0px" y="0px"
	 viewBox="168.1 366.4 80 60.6" style="enable-background:new 168.1 366.4 80 60.6;" xml:space="preserve">
<g>
	<g>
		<path d="M247.6,371.9l-0.5-1c-0.9-1.8-2.4-3.2-4.3-3.9c-3.3-1.2-7.7-0.5-12.8,2h-0.1l-19.8,11L191,369.7c-0.4-0.2-1-0.3-1.4,0
			l-8.5,4c-0.5,0.2-0.9,0.7-0.9,1.3c-0.1,0.6,0.2,1.1,0.6,1.4l15.1,11.5l-13,7.2l-6.8-3.7c-0.4-0.2-1-0.3-1.4,0L169,394
			c-0.5,0.2-0.9,0.7-0.9,1.3c-0.1,0.6,0.2,1.1,0.6,1.4l12.3,9.4c1.2,0.9,2.6,1.3,4,1.3c0.9,0,1.9-0.2,2.8-0.6l6.3-3l50.2-24.1
			c1.5-0.7,2.7-1.8,3.3-3.2C248.3,375.1,248.3,373.5,247.6,371.9z M184.9,375.4l5.3-2.5l22.7,12.3l-4.5,2.1l-5.6-4.1
			c-0.7-0.5-1.7-0.4-2.2,0.3c-0.5,0.7-0.4,1.7,0.3,2.2l4.2,3.1l-1.6,0.7L184.9,375.4z M242.9,376.9L192.7,401l-6.3,2.9
			c-1.1,0.5-2.4,0.4-3.4-0.4l-10.2-7.8l2.6-1.2l6.8,3.7c0.5,0.3,1.1,0.3,1.5,0l15-8.3l3.6,2.7c0.3,0.2,0.6,0.3,1,0.3
			c0.2,0,0.5,0,0.7-0.2l13.2-6.2c0.5-0.3,0.9-0.8,0.9-1.4c0-0.6-0.3-1.2-0.8-1.5l-3.8-2l17.9-9.9c4.1-2,7.6-2.6,10-1.9l-5.9,3
			c-0.8,0.4-1.1,1.4-0.7,2.2c0.3,0.6,0.8,0.9,1.4,0.9c0.2,0,0.5-0.1,0.7-0.2l7.2-3.6c0,0,0,0.1,0.1,0.1l0.5,1
			C245.4,375,244.2,376.3,242.9,376.9z"/>
	</g>
</g>
<g>
	<g>
		<path d="M226.9,416.4h-54.1c-0.9,0-1.6,0.7-1.6,1.6s0.7,1.6,1.6,1.6h54.1c0.9,0,1.6-0.7,1.6-1.6S227.7,416.4,226.9,416.4z"/>
	</g>
</g>
<g>
	<g>
		<path d="M207.8,424.3h-26.4c-0.9,0-1.6,0.7-1.6,1.6s0.7,1.6,1.6,1.6h26.4c0.9,0,1.6-0.7,1.6-1.6S208.7,424.3,207.8,424.3z"/>
	</g>
</g>
</svg>
