<?xml version="1.0" encoding="utf-8"?>
<!-- Generator: Adobe Illustrator 19.2.1, SVG Export Plug-In . SVG Version: 6.00 Build 0)  -->
<svg version="1.1" id="Layer_1" xmlns="http://www.w3.org/2000/svg" xmlns:xlink="http://www.w3.org/1999/xlink" x="0px" y="0px"
	 viewBox="0 0 64 64" style="enable-background:new 0 0 64 64;" xml:space="preserve">
<g id="Support">
	<path d="M38,38.2c0.1-0.6-0.3-1.1-0.9-1.1c-0.5-0.1-1,0.3-1.1,0.9c0,0.3-0.6,3.2-5,3.2c-4.4,0-5-2.9-5-3.2
		c-0.1-0.6-0.6-0.9-1.1-0.9c-0.5,0.1-0.9,0.6-0.9,1.1c0.2,1.7,2,4.9,7,4.9C36,43.2,37.8,39.9,38,38.2z"/>
	<path d="M50,30c0-11.8-8.5-21.4-19-21.4c-10.5,0-19,9.6-19,21.4s8.5,21.3,19,21.3C41.5,51.3,50,41.7,50,30z M14,30
		c0-10.7,7.6-19.3,17-19.3c9.4,0,17,8.7,17,19.3c0,10.7-7.6,19.3-17,19.3C21.6,49.3,14,40.6,14,30z"/>
	<path d="M29,25.9c0-2.2-1.8-4.1-4-4.1c-2.2,0-4,1.8-4,4.1c0,2.2,1.8,4.1,4,4.1C27.2,30,29,28.1,29,25.9z M23,25.9c0-1.1,0.9-2,2-2
		c1.1,0,2,0.9,2,2c0,1.1-0.9,2-2,2C23.9,27.9,23,27,23,25.9z"/>
	<path d="M37,30c2.2,0,4-1.8,4-4.1c0-2.2-1.8-4.1-4-4.1c-2.2,0-4,1.8-4,4.1C33,28.1,34.8,30,37,30z M37,23.9c1.1,0,2,0.9,2,2
		c0,1.1-0.9,2-2,2c-1.1,0-2-0.9-2-2C35,24.8,35.9,23.9,37,23.9z"/>
	<path d="M57,24c-0.2-2.5-1.1-9.6-6.6-15.3c-4.7-4.8-11.4-7.2-20-7.2c-8.6,0-15.2,2.4-19.6,7.2C5.6,14.3,5,21.4,5,24
		c-2.3,0.5-4,2.5-4,5V35c0,2.8,2.2,5.1,5,5.1s5-2.3,5-5.1V29c0-2.5-1.7-4.5-4-5c0-2.3,0.6-8.8,5.2-13.9c4-4.4,10.1-6.6,18.2-6.6
		c8,0,14.3,2.2,18.6,6.6c4.9,5,5.8,11.5,6,13.9c-2.3,0.5-4,2.5-4,5V35c0,2.4,1.7,4.5,3.9,5c-0.2,1.3-0.8,4-2.3,6.7
		c-3,5.3-7.9,8.6-14.7,9.7c-0.4-2.3-2.5-4.1-4.9-4.1c-2.8,0-5,2.3-5,5.1c0,2.8,2.2,5.1,5,5.1c2.4,0,4.5-1.8,4.9-4.1c0,0,0.1,0,0.1,0
		c0,0,0.1,0,0.1,0C53.5,55.9,56.3,43.5,56.8,40c2.4-0.4,4.2-2.5,4.2-5V29C61,26.5,59.3,24.4,57,24z M9,29V35c0,1.7-1.3,3-3,3
		c-1.7,0-3-1.4-3-3V29c0-1.7,1.3-3.1,3-3.1C7.7,25.9,9,27.3,9,29z M33,60.5c-1.7,0-3-1.4-3-3c0-1.7,1.3-3.1,3-3.1s3,1.4,3,3.1
		C36,59.1,34.7,60.5,33,60.5z M59,35c0,1.7-1.3,3-3,3c-1.7,0-3-1.4-3-3V29c0-1.7,1.3-3.1,3-3.1c1.7,0,3,1.4,3,3.1V35z"/>
</g>
</svg>
