<?xml version="1.0" encoding="utf-8"?>
<!-- Generator: Adobe Illustrator 19.0.0, SVG Export Plug-In . SVG Version: 6.00 Build 0)  -->
<svg version="1.1" id="Layer_1" xmlns="http://www.w3.org/2000/svg" xmlns:xlink="http://www.w3.org/1999/xlink" x="0px" y="0px"
	 viewBox="177.3 366.7 60.2 60.9" style="enable-background:new 177.3 366.7 60.2 60.9;" xml:space="preserve">
<g>
	<g>
		<g>
			<rect x="192.3" y="384.4" width="29.3" height="2.7"/>
			<rect x="219" y="388.4" width="2.7" height="2.7"/>
			<rect x="192.3" y="388.4" width="2.7" height="2.7"/>
			<rect x="205.7" y="375.8" width="2.7" height="2.7"/>
			<rect x="209.7" y="375.8" width="2.7" height="2.7"/>
			<rect x="201.7" y="375.8" width="2.7" height="2.7"/>
			<rect x="197.7" y="375.8" width="2.7" height="2.7"/>
			<rect x="213.7" y="375.8" width="2.7" height="2.7"/>
			<path d="M231.4,423.7c-1.2,0.6-2.2,1.2-4.3,1.2l7.9-23.4c0.2-0.6-0.1-1.3-0.7-1.6l-7.2-3.2v-12.8c0-2.2-1.8-4-4-4h-2v-6.6
				c0-0.7-0.6-1.3-1.3-1.3h-11.3v-5.3h-2.7v5.3h-11.3c-0.7,0-1.3,0.6-1.3,1.3v6.6h-2c-2.2,0-4,1.8-4,4v12.8l-7.2,3.2
				c-0.6,0.3-0.9,1-0.7,1.6l7.9,23.4c-2.1,0-3.1-0.5-4.3-1.2c-1.3-0.7-2.8-1.5-5.6-1.5v2.7c2.2,0,3.2,0.5,4.4,1.2
				c1.3,0.7,2.8,1.5,5.6,1.5c0.8,0,1.4,0,2-0.2c1.6-0.3,2.7-0.8,3.7-1.3c1.2-0.6,2.2-1.2,4.4-1.2s3.2,0.5,4.4,1.2
				c1.3,0.7,2.8,1.5,5.6,1.5s4.3-0.8,5.6-1.5c1.2-0.6,2.2-1.2,4.4-1.2c2.2,0,3.2,0.5,4.4,1.2c1,0.5,2,1.1,3.7,1.3
				c0.6,0.1,1.2,0.2,2,0.2c2.8,0,4.3-0.8,5.6-1.5c1.2-0.6,2.2-1.2,4.4-1.2v-2.7C234.2,422.2,232.7,423,231.4,423.7z M232,401.7
				l-1,2.9l-22.7-10.4v-3.1L232,401.7z M195.7,374.5h22.7v5.3h-22.7V374.5z M189.7,383.7c0-0.7,0.6-1.3,1.3-1.3h3.3h25.3h3.3
				c0.7,0,1.3,0.6,1.3,1.3v11.6l-16.8-7.5c-0.3-0.2-0.7-0.2-1.1,0l-16.8,7.5L189.7,383.7L189.7,383.7z M182,401.7l23.7-10.6v3.1
				L183,404.6L182,401.7z M224.4,424.5c-0.6-0.2-1.2-0.5-1.8-0.8c-1.3-0.7-2.8-1.5-5.6-1.5c-2.8,0-4.3,0.8-5.6,1.5
				c-1.2,0.6-2.2,1.2-4.4,1.2s-3.2-0.5-4.4-1.2c-1.3-0.7-2.8-1.5-5.6-1.5s-4.3,0.8-5.6,1.5c-0.6,0.3-1.1,0.6-1.8,0.8l-5.8-17.4
				l21.9-10v15.8h2.7v-15.8l21.9,10L224.4,424.5z"/>
		</g>
	</g>
</g>
</svg>
