<?xml version="1.0" encoding="utf-8"?>
<!-- Generator: Adobe Illustrator 19.0.0, SVG Export Plug-In . SVG Version: 6.00 Build 0)  -->
<svg version="1.1" id="Capa_1" xmlns="http://www.w3.org/2000/svg" xmlns:xlink="http://www.w3.org/1999/xlink" x="0px" y="0px"
	 viewBox="146.6 367 79.8 61" style="enable-background:new 146.6 367 79.8 61;" xml:space="preserve">
<path d="M212,411.6c-2,0-3.8,0.9-5.2,2.4c-1.4,1.6-2.2,3.6-2.2,5.8c0,2.2,0.8,4.2,2.2,5.8c1.4,1.5,3.3,2.4,5.2,2.4
	c4,0,7.3-3.7,7.3-8.2C219.2,415.2,216,411.6,212,411.6z M212,424.3c-2.2,0-4.1-2.1-4.1-4.6s1.9-4.6,4.1-4.6s4,2,4,4.6
	C216,422.3,214.2,424.3,212,424.3z M213.8,384.2c-0.3-0.3-0.7-0.5-1.1-0.5h-8.4c-0.9,0-1.6,0.8-1.6,1.8v14.9c0,1,0.7,1.8,1.6,1.8
	h13.3c0.9,0,1.6-0.8,1.6-1.8v-10c0-0.5-0.2-1-0.5-1.3L213.8,384.2z M216,398.7h-10v-11.3h6.1l3.9,3.9V398.7z M172.2,411.6
	c-2,0-3.8,0.9-5.2,2.4c-1.4,1.6-2.2,3.6-2.2,5.8c0,2.2,0.8,4.2,2.2,5.8c1.4,1.5,3.3,2.4,5.2,2.4c4,0,7.3-3.7,7.3-8.2
	C179.4,415.2,176.2,411.6,172.2,411.6z M172.2,424.3c-2.2,0-4.1-2.1-4.1-4.6s1.9-4.6,4.1-4.6c2.2,0,4,2,4,4.6
	C176.2,422.3,174.4,424.3,172.2,424.3z M161.3,413.8H158v-4.9c0-1-0.7-1.8-1.6-1.8s-1.6,0.8-1.6,1.8v6.7c0,1,0.7,1.8,1.6,1.8h4.9
	c0.9,0,1.6-0.8,1.6-1.8S162.2,413.8,161.3,413.8z M169.6,403.9c0-1-0.7-1.8-1.6-1.8h-19.8c-0.9,0-1.6,0.8-1.6,1.8s0.7,1.8,1.6,1.8
	H168C168.8,405.7,169.6,404.9,169.6,403.9z M151.5,397.3l19.8,0.1c0.9,0,1.6-0.8,1.6-1.8s-0.7-1.8-1.6-1.8l-19.8-0.1l0,0
	c-0.9,0-1.6,0.8-1.6,1.8S150.6,397.3,151.5,397.3z M154.8,389h19.8c0.9,0,1.6-0.8,1.6-1.8s-0.7-1.8-1.6-1.8h-19.8
	c-0.9,0-1.6,0.8-1.6,1.8S153.9,389,154.8,389z M225.9,386.6L225.9,386.6l-11.7-10.8c-0.3-0.3-0.7-0.4-1-0.4h-13.7v-6.6
	c0-1-0.7-1.8-1.6-1.8h-41.5c-0.9,0-1.6,0.8-1.6,1.8v13.3c0,1,0.7,1.8,1.6,1.8s1.6-0.8,1.6-1.8v-11.5h38.2v43.2h-13.4
	c-0.9,0-1.6,0.8-1.6,1.8s0.7,1.8,1.6,1.8h19.9c0.9,0,1.6-0.8,1.6-1.8s-0.7-1.8-1.6-1.8h-3.3V379h13.1l10.6,9.8l-0.1,24.9h-1.7
	c-0.9,0-1.6,0.8-1.6,1.8s0.7,1.8,1.6,1.8h3.3c0.9,0,1.6-0.8,1.6-1.8l0.1-27.6C226.5,387.4,226.3,386.9,225.9,386.6z"/>
</svg>
