<?xml version="1.0" encoding="utf-8"?>
<!-- Generator: Adobe Illustrator 22.1.0, SVG Export Plug-In . SVG Version: 6.00 Build 0)  -->
<svg version="1.1" id="Layer_1" xmlns="http://www.w3.org/2000/svg" xmlns:xlink="http://www.w3.org/1999/xlink" x="0px" y="0px"
	 viewBox="0 0 103.7 88.5" style="enable-background:new 0 0 103.7 88.5;" xml:space="preserve">
<style type="text/css">
	.st0{fill:#FFFFFF;}
</style>
<path class="st0" d="M99.4,21L87.6,9.3c-1.2-1.2-3.1-1.2-4.2,0L69.6,23.2c-1.2,1.2-1.2,3.1,0,4.2l2.7,2.7c-1.3,0.3-1,2.3-1.3,2.4
	c-0.3,0.2-0.9,0.1-0.9,0.1c-5.6-0.1-8.9-2.6-13.8-5.1c-2.3-1.2-4.6-2.8-8-4.2c-0.3,7.4-1.4,13.1-4.6,20.5
	c-3.3,7.7-8.3,12.8-10.2,14.8c-1.8,2-2.4,2.2-4.2,2.3s-3-0.7-7.1-2.3c-4.1-1.7-6.5-3.8-7.4-4.6c-0.9-0.9-0.6-1.5,0-2.2
	c0.6-0.8,3.3-3.9,6.7-8c4.2-5.1,7.7-13.9,7.7-13.9c1.6-0.1,3.4,0.2,3.4,0.2c-0.8,3.1-5,11-5,11s2.1,1,5.1,1.9c3,0.8,6.1,1.5,6.1,1.5
	s1.8-2.6,4-8.9c1.7-5.2,1.9-13.7,1.9-13.7l0,0l0.1-1.9c0,0,2.4,0.2,3-0.7s0-2.5,0.2-3.1s0.6-0.2,0.9-0.7s-1.4-2.9-1.1-3.6
	c0.2-0.4,0.8-0.8,2.9-1.6c1-0.4,1.2-0.7,1.4-1c0.4-0.5,0-1.5-0.9-1c-0.5,0.3-1.2,0.5-1.8,0.9c-1.8,1-2.4,1-2.4-1
	c-0.1-2.2-1.2-2.3-2-2.4s-4.1,0.2-6.8,2c-2.9,2-3.4,4.8-2.7,7s3.2,4.7,3.5,5.4s-0.3,1.1-2,1l0,0c-1.4-0.1-2.9-0.1-4.5-0.1
	C17.5,20.9,7.7,33,7.4,33.4s-0.4,1,0,1.5s1.1,1.5,1.1,1.5c-1.8,1.3-2,3-2,3.9c-0.1,0.9,0.4,3.5,2.8,3.4s2.2-2.5,3.4-2.8
	s0.5-1.7,0-3.1s2.3-2.9,2.3-2.9c3.4-2.1,6.9-3.7,10.6-4.6c-0.9,2.8-2.7,7.4-6.7,12.3c-6.7,8.3-6.8,8.5-7.4,9.2s-0.7,2,0,2.6
	s4.5,4.8,11,7.4C15.4,69.6,8.6,73.5,8.6,73.5c4.2,6.2,10.9,10.8,10.9,10.8c1.2-3.9-0.5-6.9-0.5-6.9c9.1-5.7,15.6-11.7,20.3-17.5
	C54.2,70,58.9,83,58.9,83c9.3-5.6,12.3-9.5,12.3-9.5c-3.7-1.6-6.9-0.1-6.9-0.1c-5.5-11.2-11.9-19-18.1-24.4
	c2.7-5.5,3.8-10.3,4.2-13.5c8.7,3.1,16,3.4,19.3,3.1c4-0.3,5.8-1.9,7-3c0.2-0.2,0.3-0.5,0.4-0.8l4.3,4.3c1.2,1.2,3.1,1.2,4.2,0
	l13.8-13.9C100.5,24.1,100.5,22.2,99.4,21z"/>
</svg>
