<?xml version="1.0" encoding="utf-8"?>
<!-- Generator: Adobe Illustrator 16.0.4, SVG Export Plug-In . SVG Version: 6.00 Build 0)  -->
<!DOCTYPE svg PUBLIC "-//W3C//DTD SVG 1.1//EN" "http://www.w3.org/Graphics/SVG/1.1/DTD/svg11.dtd">
<svg version="1.1" id="Layer_1" xmlns="http://www.w3.org/2000/svg" xmlns:xlink="http://www.w3.org/1999/xlink" x="0px" y="0px"
	 width="18px" height="15px" viewBox="0 0 18 15" enable-background="new 0 0 18 15" xml:space="preserve">
<g>
	<path fill="#218648" d="M13.502,8.483c-0.471,2.862-2.971,5.054-5.976,5.054c-3.34,0-6.058-2.709-6.058-6.037
		c0-3.329,2.718-6.037,6.058-6.037c1.683,0,3.206,0.687,4.306,1.794l1.127-0.94C11.588,0.89,9.66,0,7.526,0C3.376,0,0,3.364,0,7.5
		S3.376,15,7.526,15c4.149,0,7.526-3.364,7.526-7.5c0-0.103-0.004-0.203-0.008-0.304L13.502,8.483z"/>
	<path fill="#218648" d="M17.693,1.674c-0.469-0.555-1.299-0.627-1.857-0.162L8.2,7.888L5.955,5.65
		c-0.515-0.512-1.349-0.513-1.863,0c-0.515,0.513-0.515,1.343,0,1.856l3.951,3.938l9.485-7.919
		C18.086,3.059,18.16,2.231,17.693,1.674z"/>
</g>
</svg>
